<svg width="80" height="21" viewBox="0 0 80 21" fill="none" xmlns="http://www.w3.org/2000/svg">
<g id="Envu-Customer-Logo.svg">
<g id="Clip path group">
<mask id="mask0_4_446" style="mask-type:luminance" maskUnits="userSpaceOnUse" x="0" y="0" width="80" height="20">
<g id="a">
<path id="Vector" d="M79.0581 0.835938H0.753906V19.5084H79.0581V0.835938Z" fill="white"/>
</g>
</mask>
<g mask="url(#mask0_4_446)">
<g id="Group">
<g id="Mask group">
<mask id="mask1_4_446" style="mask-type:luminance" maskUnits="userSpaceOnUse" x="0" y="1" width="80" height="18">
<g id="Group_2">
<path id="Vector_2" d="M79.0581 1.28906H0.753906V18.9979H79.0581V1.28906Z" fill="white"/>
</g>
</mask>
<g mask="url(#mask1_4_446)">
<g id="Group_3">
<path id="Vector_3" d="M37.9183 18.9376H34.7861V10.0832C34.7861 6.95105 32.2563 4.42123 29.1241 4.42123C25.992 4.42123 23.4621 6.95105 23.4621 10.0832V18.8774H20.33V10.0832C20.2697 5.26451 24.1849 1.28906 29.0639 1.28906C33.9428 1.28906 37.8581 5.26451 37.8581 10.0832V18.9376H37.9183ZM56.7715 10.0832C56.7715 14.9622 60.747 18.8774 65.5657 18.8774C70.3844 18.8774 74.3599 14.9019 74.3599 10.0832V1.28906H71.2277V10.0832C71.2277 13.2154 68.6979 15.7452 65.5657 15.7452C62.4335 15.7452 59.9037 13.2154 59.9037 10.0832V1.28906H56.7715V10.0832ZM51.7721 1.28906L46.1101 12.4323L40.3879 1.28906H36.8943L46.1101 18.9376L55.2657 1.28906H51.7721ZM2.62116 15.5645C4.24748 17.6125 6.71707 18.9376 9.54807 18.9376C12.3791 18.9376 14.9089 17.6125 16.475 15.5645H2.62116ZM18.4025 10.0832C18.4025 10.8663 18.282 11.6493 18.1013 12.3721H1.05508C0.874374 11.6493 0.753906 10.9265 0.753906 10.0832C0.753906 5.26451 4.72935 1.28906 9.54807 1.28906C14.3668 1.28906 18.4025 5.26451 18.4025 10.0832ZM15.2101 9.23994C14.7884 6.52942 12.4393 4.42123 9.6083 4.42123C6.77731 4.42123 4.36795 6.52942 4.00654 9.23994H15.2101Z" fill="#4E8178"/>
<path id="Vector_4" d="M78.6985 1.28906L78.2166 2.25281L77.7348 1.28906H77.4336V2.79491H77.7348V1.77093L78.2166 2.79491L78.7587 1.77093V2.79491H78.9997V1.28906H78.6985Z" fill="#4E8178"/>
<path id="Vector_5" d="M75.8672 1.28906V1.53H76.4093V2.79491H76.6502V1.53H77.1923V1.28906H75.8672Z" fill="#4E8178"/>
</g>
</g>
</g>
</g>
</g>
</g>
</g>
</svg>
