<svg width="20" height="21" viewBox="0 0 20 21" fill="none" xmlns="http://www.w3.org/2000/svg">
<g id="vuesax/bold/facebook">
<g id="facebook">
<path id="Vector" d="M18.3333 13.7313C18.3333 16.7646 16.525 18.5729 13.4917 18.5729H12.5C12.0417 18.5729 11.6667 18.1979 11.6667 17.7396V12.9313C11.6667 12.7063 11.85 12.5146 12.075 12.5146L13.5417 12.4896C13.6583 12.4813 13.7583 12.3979 13.7833 12.2813L14.075 10.6896C14.1 10.5396 13.9833 10.3979 13.825 10.3979L12.05 10.4229C11.8166 10.4229 11.6333 10.2396 11.625 10.0146L11.5917 7.97292C11.5917 7.83958 11.7 7.72293 11.8416 7.72293L13.8416 7.68959C13.9833 7.68959 14.0917 7.58126 14.0917 7.4396L14.0583 5.43958C14.0583 5.29791 13.95 5.18959 13.8083 5.18959L11.5583 5.22293C10.175 5.24793 9.075 6.38125 9.1 7.76458L9.14166 10.0562C9.14999 10.2896 8.96667 10.4729 8.73333 10.4813L7.73332 10.4979C7.59166 10.4979 7.48333 10.6062 7.48333 10.7479L7.50833 12.3313C7.50833 12.4729 7.61665 12.5812 7.75832 12.5812L8.75833 12.5646C8.99166 12.5646 9.17498 12.7479 9.18331 12.9729L9.25831 17.7229C9.26664 18.1896 8.89164 18.5729 8.42498 18.5729H6.50832C3.47499 18.5729 1.66666 16.7646 1.66666 13.7229V6.74791C1.66666 3.71458 3.47499 1.90625 6.50832 1.90625H13.4917C16.525 1.90625 18.3333 3.71458 18.3333 6.74791V13.7313Z" fill="#EFEFEF" fill-opacity="0.8"/>
</g>
</g>
</svg>
