<svg width="21" height="21" viewBox="0 0 21 21" fill="none" xmlns="http://www.w3.org/2000/svg">
<g id="vuesax/bold/facebook">
<g id="facebook">
<path id="Vector" d="M18.7745 13.6116C18.7745 16.645 16.9662 18.4533 13.9329 18.4533H12.9412C12.4828 18.4533 12.1078 18.0783 12.1078 17.62V12.8116C12.1078 12.5866 12.2912 12.395 12.5162 12.395L13.9828 12.37C14.0995 12.3616 14.1995 12.2783 14.2245 12.1616L14.5162 10.57C14.5412 10.42 14.4245 10.2783 14.2662 10.2783L12.4912 10.3033C12.2578 10.3033 12.0745 10.12 12.0662 9.89496L12.0329 7.85329C12.0329 7.71995 12.1412 7.6033 12.2828 7.6033L14.2828 7.56996C14.4245 7.56996 14.5329 7.46163 14.5329 7.31997L14.4995 5.31995C14.4995 5.17828 14.3912 5.06996 14.2495 5.06996L11.9995 5.1033C10.6162 5.1283 9.51619 6.26162 9.54119 7.64495L9.58285 9.93662C9.59118 10.17 9.40786 10.3533 9.17452 10.3616L8.17451 10.3783C8.03285 10.3783 7.92452 10.4866 7.92452 10.6283L7.94952 12.2116C7.94952 12.3533 8.05785 12.4616 8.19951 12.4616L9.19952 12.445C9.43286 12.445 9.61617 12.6283 9.62451 12.8533L9.6995 17.6033C9.70784 18.07 9.33284 18.4533 8.86617 18.4533H6.94951C3.91618 18.4533 2.10785 16.6449 2.10785 13.6033V6.62829C2.10785 3.59495 3.91618 1.78662 6.94951 1.78662H13.9329C16.9662 1.78662 18.7745 3.59495 18.7745 6.62829V13.6116Z" fill="#086357" fill-opacity="0.8"/>
</g>
</g>
</svg>
