<svg width="80" height="29" viewBox="0 0 80 29" fill="none" xmlns="http://www.w3.org/2000/svg">
<g id="Gong-Customer-Logo.svg" clip-path="url(#clip0_4_432)">
<g id="Clip path group">
<mask id="mask0_4_432" style="mask-type:luminance" maskUnits="userSpaceOnUse" x="0" y="0" width="80" height="29">
<g id="a">
<path id="Vector" d="M79.0536 0.667969H0.390625V28.6768H79.0536V0.667969Z" fill="white"/>
</g>
</mask>
<g mask="url(#mask0_4_432)">
<g id="Group">
<g id="Mask group">
<mask id="mask1_4_432" style="mask-type:luminance" maskUnits="userSpaceOnUse" x="0" y="0" width="80" height="29">
<g id="Group_2">
<path id="Vector_2" d="M79.0537 0.859375H0.390625V28.4216H79.0537V0.859375Z" fill="white"/>
</g>
</mask>
<g mask="url(#mask1_4_432)">
<g id="Group_3">
<path id="Vector_3" d="M25.2032 12.6565H17.7326C17.3002 12.6565 16.9856 13.089 17.1298 13.4953L18.9253 18.1479C19.0039 18.3576 18.8467 18.5805 18.6238 18.5673L16.3303 18.4232C16.2255 18.4101 16.1206 18.4625 16.0682 18.5542L14.2858 21.0837C14.194 21.2279 13.9974 21.2803 13.8532 21.1754L11.2058 19.3799C11.1009 19.3144 10.9568 19.3144 10.865 19.3799L7.19529 21.857C6.95942 22.0143 6.64483 21.7915 6.72349 21.5162L7.74576 17.8727C7.78509 17.7155 7.71954 17.5712 7.56227 17.5058L5.62257 16.7194C5.42598 16.6408 5.37355 16.4048 5.50462 16.2476L7.2084 14.1244C7.28707 14.0195 7.30018 13.8753 7.22152 13.7574L5.77985 11.6735C5.64879 11.4769 5.76674 11.2148 6.01575 11.2017L8.25689 11.0313C8.41415 11.0182 8.54526 10.874 8.54526 10.7037L8.36177 7.57127C8.34866 7.34851 8.57148 7.19124 8.79424 7.26985L11.5728 8.42321C11.6907 8.4756 11.8349 8.44937 11.9135 8.34455L13.827 6.20825C13.9843 6.03788 14.2595 6.0903 14.3512 6.28689L15.5046 9.24888C15.6619 9.61585 16.1206 9.7469 16.4352 9.49792L20.9305 6.15583C21.4417 5.77575 21.114 4.96317 20.4849 5.05492L17.5229 5.4481C17.3788 5.47431 17.2477 5.38256 17.1953 5.25151L15.6357 1.25413C15.4653 0.834736 14.9279 0.729887 14.6134 1.07065L11.232 4.74036C11.1402 4.83211 11.0092 4.85832 10.8913 4.8059L6.43512 2.93172C6.04197 2.77444 5.59636 3.04968 5.58326 3.48218L5.42598 8.08246C5.41287 8.23973 5.29492 8.37077 5.13765 8.37077L1.07474 8.63286C0.602922 8.65908 0.340799 9.19643 0.602922 9.58963L3.30278 13.5739C3.38142 13.6918 3.36832 13.836 3.27658 13.954L0.537391 17.0994C0.262163 17.414 0.380118 17.899 0.760196 18.0693L3.90567 19.4323C4.04983 19.4979 4.11537 19.6421 4.07605 19.7862L2.0577 27.6499C1.91354 28.2135 2.54263 28.6329 3.01445 28.3052L10.5767 22.8793C10.6816 22.8137 10.8257 22.8006 10.9305 22.8793L14.3775 25.3039C14.6658 25.5136 15.0459 25.4219 15.2425 25.1466L17.3919 21.8439C17.4574 21.739 17.5754 21.6866 17.6802 21.7128L22.8309 22.3288C23.2503 22.3944 23.6697 22.0404 23.5124 21.6604L21.363 16.1165C21.2975 15.9592 21.363 15.8019 21.5465 15.7102L25.4653 13.8622C26.0682 13.5477 25.8585 12.6565 25.2032 12.6565Z" fill="#4E8178"/>
<path id="Vector_4" d="M78.794 12.6565H72.9879C72.8699 12.6565 72.7787 12.7483 72.7787 12.8663V15.435C72.7787 15.553 72.8699 15.6447 72.9879 15.6447H75.4652C75.5832 15.6447 75.6749 15.7364 75.6749 15.8544C75.6487 17.1781 75.3865 19.5503 72.9748 19.5503C71.0094 19.5503 70.2359 17.1781 70.2359 14.4128C70.2359 11.1231 71.0481 9.09168 72.8699 9.09168C74.194 9.09168 74.6261 10.2057 74.7441 10.6251C74.7703 10.7168 74.8621 10.7823 74.9539 10.7823H77.9687C78.0867 10.7823 78.1915 10.6775 78.1784 10.5595C78.0604 8.90819 76.6445 6.02482 72.9223 6.02482C70.3145 6.02482 67.8766 7.61067 67.1036 11.5294V6.48354C67.1036 6.41801 67.0512 6.37869 66.9988 6.37869H63.801C63.7354 6.37869 63.6961 6.43111 63.6961 6.48354V15.4875C63.6961 15.6054 63.5388 15.6316 63.4863 15.5268L59.2922 6.43111C59.266 6.39179 59.2398 6.36558 59.2004 6.36558H56.3695C56.304 6.36558 56.2647 6.41801 56.2647 6.47043V11.5163C55.2162 8.3184 52.3721 6.01172 48.6762 6.01172C44.5478 6.01172 41.4941 8.86886 40.7863 12.6565H35.0066C34.941 12.6565 34.9017 12.7089 34.9017 12.7614V15.5399C34.9017 15.6054 34.9541 15.6447 35.0066 15.6447H37.7064C37.7719 15.6447 37.8112 15.6972 37.8112 15.7496C37.7981 17.034 37.5753 19.5503 35.1114 19.5503C33.1455 19.5503 32.3722 17.1781 32.3722 14.4128C32.3722 11.1231 33.1848 9.09168 35.0066 9.09168C36.4089 9.09168 36.8151 10.363 36.9069 10.7037C36.92 10.7561 36.9594 10.7823 37.0117 10.7823H40.249C40.3145 10.7823 40.367 10.7299 40.3539 10.6644C40.2883 9.03924 38.8991 6.02482 35.0852 6.02482C31.9266 6.02482 29.0039 8.35773 29.0039 14.3865C29.0039 18.5281 30.6291 22.6303 35.1376 22.6303C38.4665 22.6303 40.6028 20.0484 41.0747 16.9423C42.0838 20.245 44.9541 22.6303 48.7287 22.6303C52.3721 22.6303 55.2686 20.3236 56.3171 17.0995V22.1978C56.3171 22.2633 56.3695 22.3027 56.422 22.3027H59.6199C59.6854 22.3027 59.7247 22.2502 59.7247 22.1978V13.3381C59.7247 13.2201 59.8819 13.1939 59.9344 13.2987L64.1281 22.2502C64.1544 22.2896 64.1806 22.3158 64.2199 22.3158H67.0512C67.1167 22.3158 67.1561 22.2633 67.1561 22.2109V17.152C67.7717 20.1926 69.5279 22.6565 73.0141 22.6565C76.8149 22.6565 79.0562 19.3144 79.0562 15.6578V12.9186C79.0038 12.7483 78.912 12.6565 78.794 12.6565ZM48.7024 19.3144C46.0157 19.3144 44.1546 17.2568 44.1546 14.3341C44.1546 11.4115 46.0157 9.35377 48.7024 9.35377C51.3761 9.35377 53.2502 11.4115 53.2502 14.3341C53.2502 17.2568 51.3761 19.3144 48.7024 19.3144Z" fill="#4E8178"/>
</g>
</g>
</g>
</g>
</g>
</g>
</g>
<defs>
<clipPath id="clip0_4_432">
<rect width="80" height="29" fill="white"/>
</clipPath>
</defs>
</svg>
