<svg width="21" height="21" viewBox="0 0 21 21" fill="none" xmlns="http://www.w3.org/2000/svg">
<g id="vuesax/bold/instagram">
<g id="instagram">
<path id="Vector" d="M13.9328 1.78662H6.94952C3.91618 1.78662 2.10785 3.59495 2.10785 6.62829V13.6033C2.10785 16.645 3.91618 18.4533 6.94952 18.4533H13.9245C16.9578 18.4533 18.7662 16.645 18.7662 13.6116V6.62829C18.7745 3.59495 16.9662 1.78662 13.9328 1.78662ZM10.4412 13.3533C8.65785 13.3533 7.20785 11.9033 7.20785 10.12C7.20785 8.33662 8.65785 6.88662 10.4412 6.88662C12.2245 6.88662 13.6745 8.33662 13.6745 10.12C13.6745 11.9033 12.2245 13.3533 10.4412 13.3533ZM15.3745 5.85329C15.3328 5.95329 15.2745 6.04495 15.1995 6.12829C15.1162 6.20329 15.0245 6.26162 14.9245 6.30329C14.8245 6.34495 14.7162 6.36995 14.6078 6.36995C14.3828 6.36995 14.1745 6.28662 14.0162 6.12829C13.9412 6.04495 13.8828 5.95329 13.8412 5.85329C13.7995 5.75329 13.7745 5.64495 13.7745 5.53662C13.7745 5.42829 13.7995 5.31995 13.8412 5.21995C13.8828 5.11162 13.9412 5.02829 14.0162 4.94495C14.2078 4.75329 14.4995 4.66162 14.7662 4.71995C14.8245 4.72829 14.8745 4.74495 14.9245 4.76995C14.9745 4.78662 15.0245 4.81162 15.0745 4.84495C15.1162 4.86995 15.1578 4.91162 15.1995 4.94495C15.2745 5.02829 15.3328 5.11162 15.3745 5.21995C15.4162 5.31995 15.4412 5.42829 15.4412 5.53662C15.4412 5.64495 15.4162 5.75329 15.3745 5.85329Z" fill="#086357" fill-opacity="0.8"/>
</g>
</g>
</svg>
