<svg width="20" height="21" viewBox="0 0 20 21" fill="none" xmlns="http://www.w3.org/2000/svg">
<g id="vuesax/bold/instagram">
<g id="instagram">
<path id="Vector" d="M13.4917 1.90625H6.50832C3.47499 1.90625 1.66666 3.71458 1.66666 6.74792V13.7229C1.66666 16.7646 3.47499 18.5729 6.50832 18.5729H13.4833C16.5167 18.5729 18.325 16.7646 18.325 13.7312V6.74792C18.3333 3.71458 16.525 1.90625 13.4917 1.90625ZM9.99999 13.4729C8.21666 13.4729 6.76666 12.0229 6.76666 10.2396C6.76666 8.45625 8.21666 7.00625 9.99999 7.00625C11.7833 7.00625 13.2333 8.45625 13.2333 10.2396C13.2333 12.0229 11.7833 13.4729 9.99999 13.4729ZM14.9333 5.97292C14.8917 6.07292 14.8333 6.16458 14.7583 6.24792C14.675 6.32292 14.5833 6.38125 14.4833 6.42292C14.3833 6.46458 14.275 6.48958 14.1667 6.48958C13.9417 6.48958 13.7333 6.40625 13.575 6.24792C13.5 6.16458 13.4417 6.07292 13.4 5.97292C13.3583 5.87292 13.3333 5.76458 13.3333 5.65625C13.3333 5.54792 13.3583 5.43958 13.4 5.33958C13.4417 5.23125 13.5 5.14792 13.575 5.06458C13.7667 4.87292 14.0583 4.78125 14.325 4.83958C14.3833 4.84792 14.4333 4.86458 14.4833 4.88958C14.5333 4.90625 14.5833 4.93125 14.6333 4.96458C14.675 4.98958 14.7167 5.03125 14.7583 5.06458C14.8333 5.14792 14.8917 5.23125 14.9333 5.33958C14.975 5.43958 15 5.54792 15 5.65625C15 5.76458 14.975 5.87292 14.9333 5.97292Z" fill="#EFEFEF" fill-opacity="0.8"/>
</g>
</g>
</svg>
