<svg width="21" height="21" viewBox="0 0 21 21" fill="none" xmlns="http://www.w3.org/2000/svg">
<g id="linkedin-02">
<path id="Vector" d="M4.19118 8.03662H3.77452C2.98884 8.03662 2.59601 8.03662 2.35192 8.2807C2.10785 8.52479 2.10785 8.91762 2.10785 9.70329V16.7866C2.10785 17.5723 2.10785 17.9651 2.35192 18.2092C2.59601 18.4533 2.98884 18.4533 3.77452 18.4533H4.19118C4.97686 18.4533 5.36969 18.4533 5.61377 18.2092C5.85785 17.9651 5.85785 17.5723 5.85785 16.7866V9.70329C5.85785 8.91762 5.85785 8.52479 5.61377 8.2807C5.36969 8.03662 4.97686 8.03662 4.19118 8.03662Z" fill="#086357" fill-opacity="0.8"/>
<path id="Vector_2" d="M6.19116 2.49487C6.19116 3.53041 5.3517 4.36987 4.31616 4.36987C3.28063 4.36987 2.44116 3.53041 2.44116 2.49487C2.44116 1.45934 3.28063 0.619873 4.31616 0.619873C5.3517 0.619873 6.19116 1.45934 6.19116 2.49487Z" fill="#086357" fill-opacity="0.8"/>
<path id="Vector_3" d="M10.7128 8.03662H10.0245C9.23885 8.03662 8.84602 8.03662 8.60192 8.2807C8.35785 8.52479 8.35785 8.91762 8.35785 9.70329V16.7866C8.35785 17.5723 8.35785 17.9651 8.60192 18.2092C8.84602 18.4533 9.23885 18.4533 10.0245 18.4533H10.4412C11.2268 18.4533 11.6197 18.4533 11.8638 18.2092C12.1078 17.9651 12.1078 17.5723 12.1078 16.7866L12.1079 13.87C12.1079 12.4894 12.5479 11.37 13.8478 11.37C14.4976 11.37 15.0245 11.9297 15.0245 12.62V16.37C15.0245 17.1557 15.0245 17.5485 15.2686 17.7926C15.5126 18.0367 15.9055 18.0367 16.6912 18.0367H17.1068C17.8923 18.0367 18.285 18.0367 18.5291 17.7927C18.7732 17.5487 18.7733 17.156 18.7734 16.3705L18.7746 11.7868C18.7746 9.71579 16.8048 8.03682 14.8552 8.03682C13.7453 8.03682 12.7551 8.58087 12.1079 9.43162C12.1078 8.90654 12.1078 8.64404 11.9938 8.44912C11.9216 8.32567 11.8188 8.2229 11.6953 8.15068C11.5004 8.03662 11.2379 8.03662 10.7128 8.03662Z" fill="#086357" fill-opacity="0.8"/>
</g>
</svg>
