<svg width="20" height="21" viewBox="0 0 20 21" fill="none" xmlns="http://www.w3.org/2000/svg">
<g id="linkedin-02">
<path id="Vector" d="M3.75001 8.15625H3.33334C2.54766 8.15625 2.15483 8.15625 1.91075 8.40032C1.66667 8.64442 1.66667 9.03725 1.66667 9.82292V16.9062C1.66667 17.6919 1.66667 18.0848 1.91075 18.3288C2.15483 18.5729 2.54766 18.5729 3.33334 18.5729H3.75001C4.53568 18.5729 4.92851 18.5729 5.1726 18.3288C5.41667 18.0848 5.41667 17.6919 5.41667 16.9062V9.82292C5.41667 9.03725 5.41667 8.64442 5.1726 8.40032C4.92851 8.15625 4.53568 8.15625 3.75001 8.15625Z" fill="#EFEFEF" fill-opacity="0.8"/>
<path id="Vector_2" d="M5.75 2.61475C5.75 3.65028 4.91053 4.48975 3.875 4.48975C2.83947 4.48975 2 3.65028 2 2.61475C2 1.57921 2.83947 0.739746 3.875 0.739746C4.91053 0.739746 5.75 1.57921 5.75 2.61475Z" fill="#EFEFEF" fill-opacity="0.8"/>
<path id="Vector_3" d="M10.2717 8.15625H9.58334C8.79767 8.15625 8.40484 8.15625 8.16075 8.40032C7.91667 8.64442 7.91667 9.03725 7.91667 9.82292V16.9062C7.91667 17.6919 7.91667 18.0848 8.16075 18.3288C8.40484 18.5729 8.79767 18.5729 9.58334 18.5729H10C10.7857 18.5729 11.1785 18.5729 11.4226 18.3288C11.6667 18.0848 11.6667 17.6919 11.6667 16.9062L11.6668 13.9897C11.6668 12.609 12.1068 11.4897 13.4066 11.4897C14.0564 11.4897 14.5833 12.0493 14.5833 12.7397V16.4897C14.5833 17.2753 14.5833 17.6682 14.8274 17.9122C15.0714 18.1563 15.4643 18.1563 16.25 18.1563H16.6656C17.4511 18.1563 17.8438 18.1563 18.0879 17.9123C18.332 17.6683 18.3321 17.2756 18.3323 16.4901L18.3334 11.9064C18.3334 9.83542 16.3637 8.15645 14.414 8.15645C13.3041 8.15645 12.3139 8.7005 11.6668 9.55125C11.6667 9.02617 11.6667 8.76367 11.5527 8.56875C11.4804 8.4453 11.3776 8.34253 11.2542 8.27031C11.0593 8.15625 10.7968 8.15625 10.2717 8.15625Z" fill="#EFEFEF" fill-opacity="0.8"/>
</g>
</svg>
