<svg width="21" height="21" viewBox="0 0 21 21" fill="none" xmlns="http://www.w3.org/2000/svg">
<g id="ph:twitter-logo-fill">
<path id="Vector" d="M19.6335 6.18717L17.2976 8.52311C16.8257 13.9934 12.2124 18.245 6.69132 18.245C5.55695 18.245 4.62179 18.0653 3.91164 17.7106C3.33898 17.4239 3.1046 17.1169 3.04601 17.0294C2.99376 16.951 2.9599 16.8619 2.94695 16.7686C2.934 16.6753 2.94229 16.5803 2.97121 16.4907C3.00014 16.401 3.04894 16.3191 3.11398 16.251C3.17901 16.1829 3.2586 16.1304 3.34679 16.0973C3.3671 16.0895 5.24054 15.37 6.43039 14.0005C5.77053 13.4579 5.19451 12.8208 4.72101 12.1098C3.75226 10.6715 2.66789 8.17311 3.00226 4.43951C3.01286 4.32088 3.05714 4.20774 3.12988 4.11342C3.20262 4.01911 3.3008 3.94754 3.41285 3.90716C3.5249 3.86677 3.64616 3.85924 3.76235 3.88546C3.87854 3.91167 3.98482 3.97055 4.06867 4.05514C4.09601 4.08248 6.66867 6.64108 9.81398 7.47076V6.99498C9.81278 6.49607 9.91142 6.00196 10.1041 5.54176C10.2968 5.08155 10.5796 4.66454 10.9359 4.3153C11.2819 3.96977 11.6936 3.69705 12.1467 3.51322C12.5998 3.32939 13.0852 3.23819 13.5741 3.24498C14.23 3.25145 14.8731 3.42752 15.4408 3.75608C16.0085 4.08464 16.4816 4.5545 16.814 5.11998H19.1913C19.315 5.11989 19.4359 5.15649 19.5388 5.22516C19.6417 5.29383 19.7219 5.39147 19.7692 5.50574C19.8166 5.62 19.8289 5.74575 19.8048 5.86705C19.7806 5.98835 19.721 6.09976 19.6335 6.18717Z" fill="#086357" fill-opacity="0.8"/>
</g>
</svg>
