<svg width="20" height="21" viewBox="0 0 20 21" fill="none" xmlns="http://www.w3.org/2000/svg">
<g id="ph:twitter-logo-fill">
<path id="Vector" d="M19.1923 6.3068L16.8564 8.64274C16.3845 14.113 11.7712 18.3646 6.25013 18.3646C5.11576 18.3646 4.1806 18.1849 3.47044 17.8302C2.89779 17.5435 2.66341 17.2365 2.60482 17.149C2.55257 17.0706 2.51871 16.9815 2.50575 16.8882C2.4928 16.7949 2.5011 16.6999 2.53002 16.6103C2.55894 16.5207 2.60775 16.4387 2.67278 16.3706C2.73782 16.3025 2.81741 16.25 2.9056 16.217C2.92591 16.2091 4.79935 15.4896 5.98919 14.1201C5.32934 13.5776 4.75332 12.9405 4.27982 12.2295C3.31107 10.7912 2.22669 8.29274 2.56107 4.55914C2.57167 4.44051 2.61594 4.32737 2.68869 4.23305C2.76143 4.13874 2.85961 4.06717 2.97166 4.02678C3.08371 3.9864 3.20497 3.97887 3.32116 4.00509C3.43735 4.0313 3.54362 4.09017 3.62747 4.17477C3.65482 4.20211 6.22747 6.7607 9.37279 7.59039V7.11461C9.37159 6.6157 9.47023 6.12159 9.6629 5.66139C9.85557 5.20118 10.1384 4.78417 10.4947 4.43492C10.8407 4.0894 11.2524 3.81668 11.7055 3.63285C12.1586 3.44902 12.644 3.35782 13.1329 3.36461C13.7888 3.37108 14.4319 3.54715 14.9996 3.87571C15.5674 4.20427 16.0404 4.67413 16.3728 5.23961H18.7501C18.8738 5.23951 18.9947 5.27612 19.0976 5.34479C19.2005 5.41346 19.2807 5.5111 19.328 5.62537C19.3754 5.73963 19.3877 5.86538 19.3636 5.98668C19.3394 6.10798 19.2798 6.21939 19.1923 6.3068Z" fill="#EFEFEF" fill-opacity="0.8"/>
</g>
</svg>
