<svg width="129" height="29" viewBox="0 0 129 29" fill="none" xmlns="http://www.w3.org/2000/svg">
<g id="Sonicwall-Customer-Logo.svg">
<g id="Clip path group">
<mask id="mask0_4_478" style="mask-type:luminance" maskUnits="userSpaceOnUse" x="0" y="4" width="129" height="21">
<g id="a">
<path id="Vector" d="M129 4H0V25H129V4Z" fill="white"/>
</g>
</mask>
<g mask="url(#mask0_4_478)">
<g id="Group">
<path id="Vector_2" d="M20.0536 4.55884C22.1487 4.55884 23.9146 5.23531 25.3512 6.61766C26.758 8.00001 27.4763 9.7059 27.4763 11.7059C27.4763 13.7059 26.758 15.4118 25.3512 16.7941C23.9445 18.1765 22.2085 18.8824 20.1733 18.8824C18.138 18.8824 16.3721 18.1765 14.9654 16.7941C13.5587 15.4118 12.8403 13.7353 12.8403 11.7647C12.8403 10.4412 13.1696 9.23531 13.7981 8.11766C14.4266 7.00001 15.3246 6.11766 16.432 5.4706C17.5394 4.88237 18.7666 4.55884 20.0536 4.55884ZM20.1134 5.88237C19.0958 5.88237 18.1081 6.14707 17.1802 6.67648C16.2524 7.2059 15.5341 7.91178 15.0253 8.79413C14.5164 9.67648 14.2471 10.6765 14.2471 11.7647C14.2471 13.3824 14.8157 14.7647 15.9531 15.8824C17.0904 17 18.4672 17.5588 20.0835 17.5588C21.161 17.5588 22.1487 17.2941 23.0765 16.7941C24.0044 16.2941 24.7227 15.5882 25.2315 14.6765C25.7403 13.7941 26.0097 12.7941 26.0097 11.7059C26.0097 10.6177 25.7403 9.64707 25.2315 8.76472C24.7227 7.88237 24.0044 7.17648 23.0466 6.64707C22.1487 6.14707 21.161 5.88237 20.1134 5.88237Z" fill="#4E8178"/>
<path id="Vector_3" d="M31.2476 19V4.5H31.5768L41.394 15.6176V4.5H42.8606V19H42.5014L32.7441 8.02941V19H31.2476Z" fill="#4E8178"/>
<path id="Vector_4" d="M46.8413 4.5H48.2181V18.9706H46.8413V4.5Z" fill="#4E8178"/>
<path id="Vector_5" d="M96.765 4.5H93.9217L89.9409 14.9706L97.9623 15L99.4887 18.9412H102.392L96.765 4.5ZM93.4128 13.2647L95.3883 8.32353L97.3337 13.2647H93.4128Z" fill="#4E8178"/>
<path id="Vector_6" d="M105.415 4.5H108.199V16.2941H113.766V18.9118H105.415V4.5Z" fill="#4E8178"/>
<path id="Vector_7" d="M116.729 4.5H119.512V16.2941H125.079V18.9118H116.729V4.5Z" fill="#4E8178"/>
<path id="Vector_8" d="M94.3107 25C94.3107 25 87.4866 22.5882 85.99 18.5588C84.3139 14.0588 90.5395 13.0294 96.9446 13.2059C100.387 13.2941 104.607 13.8235 104.607 13.8235C104.607 13.8235 94.6699 15.0588 91.0782 17.9118C87.5464 20.7059 94.3107 25 94.3107 25Z" fill="#4E8178"/>
<path id="Vector_9" d="M64.6794 15.5C63.3624 16.9412 61.7761 17.6765 59.8606 17.6765C58.0947 17.6765 56.5982 17.1177 55.4309 16C54.2636 14.8824 53.665 13.4706 53.665 11.8235C53.665 10.7059 53.9343 9.70589 54.4432 8.82354C54.952 7.94118 55.7002 7.2353 56.658 6.70589C57.6158 6.17648 58.6334 5.91177 59.7408 5.91177C60.7585 5.91177 61.6863 6.11765 62.5543 6.50001C63.3624 6.88236 64.0807 7.44118 64.6494 8.17648V6.29412C64.2304 5.94118 63.7515 5.52942 63.2427 5.29412C62.1951 4.79412 61.0279 4.52942 59.7109 4.52942C57.5559 4.52942 55.7601 5.20589 54.3234 6.58824C52.8868 7.9706 52.1685 9.64707 52.1685 11.6471C52.1685 13.6471 52.7671 15.1765 53.9343 16.5294C55.3411 18.1177 57.2866 18.9412 59.7109 18.9412C60.9979 18.9412 62.1652 18.7059 63.2128 18.2353C63.7216 18 64.2005 17.5882 64.6494 17.2647V15.5H64.6794Z" fill="#4E8178"/>
<path id="Vector_10" d="M5.29768 11.0588C1.97541 10.3824 1.34687 9.52941 1.34687 8.20588V8.17647C1.34687 6.76471 2.72367 5.73529 4.60928 5.73529C6.19559 5.73529 7.45267 6.20588 8.67981 7.26471L8.79954 7.35294L8.82947 7.32353V5.70588C7.54246 4.85294 6.28538 4.5 4.63921 4.5C2.00534 4.5 0 6.11765 0 8.26471V8.29412C0 10.4706 1.40673 11.6176 4.81879 12.3235C8.05128 12.9706 8.64988 13.7941 8.64988 15.1176V15.1471C8.64988 16.6765 7.24316 17.7353 5.26775 17.7353C3.29234 17.7353 1.94548 17.1765 0.359165 15.7353L0.239443 15.6471L0.209513 15.6765V17.3235C1.73596 18.4412 3.29234 18.9706 5.20789 18.9706C8.02135 18.9706 9.99675 17.3824 9.99675 15.0882V15.0588C9.99675 12.9118 8.59002 11.7353 5.29768 11.0588Z" fill="#4E8178"/>
<path id="Vector_11" d="M85.7504 4.49999L82.3982 14.2941L82.3383 14.5L82.2485 14.2941L78.9562 4.47058H76.2924L72.9701 14.2941L72.9103 14.5L72.8205 14.2941L69.4683 4.49999H66.146L71.4437 18.9706H74.1973L77.5195 9.5294L77.5794 9.32352L77.6393 9.5294L80.9615 18.9706H83.6852L88.9829 4.49999H85.7504Z" fill="#4E8178"/>
<path id="Vector_12" d="M127.324 7.23529C126.426 7.23529 125.678 6.5 125.678 5.61765C125.678 4.73529 126.426 4 127.324 4C128.222 4 129 4.73529 129 5.61765C129 6.5 128.252 7.23529 127.324 7.23529ZM127.324 4.17647C126.516 4.17647 125.887 4.82353 125.887 5.58824C125.887 6.35294 126.546 7 127.324 7C128.102 7 128.761 6.35294 128.761 5.58824C128.791 4.82353 128.132 4.17647 127.324 4.17647ZM127.743 6.55882L127.294 5.82353H127.114V6.55882H126.606V4.61765H127.474C127.952 4.61765 128.162 4.91176 128.162 5.20588C128.162 5.44118 128.042 5.64706 127.803 5.73529L128.371 6.52941H127.743V6.55882ZM127.084 4.94118V5.47059H127.324C127.533 5.47059 127.623 5.38235 127.623 5.20588C127.623 5.02941 127.533 4.94118 127.324 4.94118H127.084Z" fill="#4E8178"/>
</g>
</g>
</g>
</g>
</svg>
