<svg width="67" height="17" viewBox="0 0 67 17" fill="none" xmlns="http://www.w3.org/2000/svg">
<g id="Zoom-Customer-Logo.svg">
<g id="Clip path group">
<mask id="mask0_4_419" style="mask-type:luminance" maskUnits="userSpaceOnUse" x="0" y="0" width="67" height="17">
<g id="a">
<path id="Vector" d="M66.0621 0.890625H0.808594V16.451H66.0621V0.890625Z" fill="white"/>
</g>
</mask>
<g mask="url(#mask0_4_419)">
<g id="Group">
<g id="Mask group">
<mask id="mask1_4_419" style="mask-type:luminance" maskUnits="userSpaceOnUse" x="0" y="1" width="67" height="16">
<g id="Group_2">
<path id="Vector_2" d="M66.0621 1.26953H0.808594V16.0269H66.0621V1.26953Z" fill="white"/>
</g>
</mask>
<g mask="url(#mask1_4_419)">
<g id="Group_3">
<path id="Vector_3" fill-rule="evenodd" clip-rule="evenodd" d="M25.1532 5.48591C26.8598 7.19254 26.8598 10.0035 25.1532 11.7101C23.4465 13.4167 20.6356 13.4167 18.929 11.7101C17.2224 10.0035 17.2224 7.19254 18.929 5.48591C20.6858 3.77928 23.4465 3.77928 25.1532 5.48591ZM22.0411 1.26953C23.8983 1.26953 25.8057 1.97226 27.2112 3.42792C30.0723 6.28902 30.0723 10.907 27.2112 13.7681C24.35 16.6292 19.7321 16.6292 16.871 13.7681C14.0099 10.907 14.0099 6.28902 16.871 3.42792C18.3266 1.97226 20.1839 1.26953 22.0411 1.26953ZM40.563 5.48591C42.2696 7.19254 42.2696 10.0035 40.563 11.7101C38.8564 13.4167 36.0455 13.4167 34.3388 11.7101C32.6322 10.0035 32.6322 7.19254 34.3388 5.48591C36.0455 3.77928 38.8564 3.77928 40.563 5.48591ZM42.621 3.42792C45.4821 6.28902 45.4821 10.907 42.621 13.7681C39.7599 16.6292 35.142 16.6292 32.2808 13.7681C29.4197 10.907 29.4197 6.28902 32.2808 3.42792C33.6863 1.97226 35.5937 1.26953 37.4509 1.26953C39.3081 1.26953 41.2156 1.97226 42.621 3.42792ZM3.7199 15.8763L4.47283 15.9265H15.4655L15.4153 15.1735C15.3149 13.9689 14.4616 13.0653 13.2569 13.0152L12.504 12.965H5.92848L14.7126 4.18084L14.6624 3.42792C14.6122 2.22324 13.7087 1.31973 12.504 1.26953H11.8013H0.808594L0.858789 2.02246C0.959179 3.17694 1.81249 4.08045 3.01717 4.18084L3.7701 4.23103H10.3456L1.56152 13.0152L1.61171 13.7681C1.66191 14.9226 2.51522 15.8261 3.7199 15.8763ZM53.9149 5.68669C54.1659 6.13844 54.2663 6.5902 54.2663 7.14234L54.3164 7.89526V13.0152L54.3666 13.7681C54.4168 14.9728 55.3203 15.8763 56.525 15.9265L57.278 15.9767V7.84507L57.3281 7.09214C57.3783 6.54 57.4285 6.03805 57.6795 5.63649C58.1815 4.78318 59.1352 4.18084 60.1893 4.18084C61.2936 4.18084 62.1971 4.78318 62.7492 5.63649C63.0002 6.08824 63.0504 6.59019 63.1006 7.09214L63.1508 7.84507V12.965L63.201 13.7179C63.2512 14.9226 64.1547 15.8261 65.3593 15.8763L66.1123 15.9265V7.89526V7.14234C66.1123 3.87967 63.5021 1.26953 60.2395 1.26953C58.4826 1.26953 56.9266 2.02246 55.8223 3.22714C54.7682 2.02246 53.162 1.26953 51.4051 1.26953C50.2005 1.26953 49.046 1.6209 48.1425 2.27343C47.4899 1.6209 46.2351 1.26953 45.4821 1.26953V15.9265L46.2351 15.8763C47.4397 15.7759 48.3432 14.9226 48.3934 13.7179L48.4436 12.965V7.84507L48.4938 7.09214C48.544 6.54 48.5942 6.03805 48.8452 5.63649C49.3471 4.78318 50.3008 4.18084 51.3549 4.18084C52.4592 4.18084 53.4129 4.78318 53.9149 5.68669Z" fill="#4E8178"/>
</g>
</g>
</g>
</g>
</g>
</g>
</g>
</svg>
